<?xml version="1.0" encoding="UTF-8" standalone="no"?>


<!-- Uploaded to: SVG Repo, www.svgrepo.com, Generator: SVG Repo Mixer Tools -->
<svg 
   xmlnsdc="http://purl.org/dc/elements/1.1/"
   xmlnscc="http://creativecommons.org/ns#"
   xmlnsrdf="http://www.w3.org/1999/02/22-rdf-syntax-ns#"
   xmlnssvg="http://www.w3.org/2000/svg"
   xmlns="http://www.w3.org/2000/svg"
   version="1.1"
   width="current"
   height="current"
   viewBox="0 0 20 20"
   id="svg2">
  <metadata
     id="metadata8">
    <rdfRDF>
      <ccWork
         rdfabout="">
        <dcFormat>image/svg+xml</dcFormat>
        <dcType
           rdfresource="http://purl.org/dc/dcmitype/StillImage" />
        <dcTitle></dcTitle>
      </ccWork>
    </rdfRDF>
  </metadata>
  <defs
     id="defs6" />
  <rect
     width="current"
     height="current"
     x="0"
     y="0"
     id="canvas"
     style="fill:current;stroke:current;visibility:hidden" />
  <path
     d="M 2,0 C 0.491525,0 0,1 0,2 0.02381,3 0.542373,4 2,4 L 12,4 11,3 2,3 C 1,3 1,2 1,2 1,2 1,1 2,1 L 11,1 12,0 2,0 z m 0,1.75 0,0.5 9,0 0,-0.5 -9,0 z M 4,5 C 2.491525,5 2,6 2,7 2.02381,8 2.542373,9 4,9 L 14,9 13,8 4,8 C 3,8 3,7 3,7 3,7 3,6 4,6 L 13,6 14,5 4,5 z m 0,1.75 0,0.5 9,0 0,-0.5 -9,0 z M 2,10 c -1.508475,0 -2,1 -2,2 0.02381,1 0.542373,2 2,2 l 10,0 -1,-1 -9,0 C 1,13 1,12 1,12 1,12 1,11 2,11 l 9,0 1,-1 -10,0 z m 0,1.75 0,0.5 9,0 0,-0.5 -9,0 z"
     id="books"
     style="fill:current;fill-opacity:1;fill-rule:evenodd;stroke:current" />
</svg>