<svg width="31" height="31" viewBox="0 0 31 31" fill="none" xmlns="http://www.w3.org/2000/svg">
<path fill-rule="evenodd" clip-rule="evenodd" d="M21.5027 5.52252C23.7077 5.03609 25.6901 5.14042 26.9044 5.29846C26.9432 5.30348 26.9844 5.32072 27.0289 5.37725C27.0782 5.43956 27.125 5.54718 27.125 5.69058V22.6897C27.125 23.0603 26.807 23.3477 26.4764 23.3367C24.9023 23.2849 22.5895 23.332 20.4073 23.8593C18.908 24.2216 17.7089 24.8266 16.7917 25.4485V8.35145C16.7917 8.04115 16.8625 7.88383 16.9138 7.81759C17.0737 7.61138 17.5632 7.17097 18.406 6.69543C19.2198 6.23633 20.2792 5.79243 21.5027 5.52252ZM27.2378 2.73673C25.8303 2.55354 23.5302 2.42979 20.9462 2.99984C19.4542 3.32899 18.1558 3.87045 17.1367 4.44552C16.1465 5.00414 15.3281 5.64668 14.8723 6.23466C14.3476 6.91131 14.2084 7.70562 14.2084 8.35145V28.4167C14.2084 28.9864 14.5817 29.4887 15.127 29.6533C15.6698 29.817 16.2555 29.6076 16.5717 29.1378L16.5741 29.1342L16.5726 29.1364L16.5717 29.1378C16.5717 29.1378 16.5734 29.1353 16.575 29.133C16.5805 29.1251 16.5921 29.109 16.6097 29.0855C16.645 29.0385 16.7044 28.9623 16.7883 28.8645C16.9567 28.6685 17.2217 28.3881 17.5878 28.0806C18.319 27.4661 19.446 26.7493 21.0142 26.3704C22.8687 25.9222 24.9162 25.87 26.3912 25.9186C28.1735 25.9774 29.7084 24.5281 29.7084 22.6897V5.69058C29.7084 4.32619 28.7972 2.93967 27.2378 2.73673Z" fill="white"/>
<path fill-rule="evenodd" clip-rule="evenodd" d="M9.49726 5.52252C7.29235 5.03609 5.30986 5.14042 4.09552 5.29846C4.05688 5.30348 4.01556 5.32072 3.97102 5.37725C3.92191 5.43956 3.87496 5.54718 3.87496 5.69058V22.6897C3.87496 23.0603 4.19295 23.3477 4.52365 23.3367C6.09761 23.2849 8.41056 23.332 10.5926 23.8593C12.092 24.2216 13.2911 24.8266 14.2083 25.4485V8.35145C14.2083 8.04115 14.1375 7.88383 14.0862 7.81759C13.9263 7.61138 13.4368 7.17097 12.5939 6.69543C11.7802 6.23633 10.7207 5.79243 9.49726 5.52252ZM3.76213 2.73673C5.16974 2.55354 7.46981 2.42979 10.0538 2.99984C11.5458 3.32899 12.8441 3.87045 13.8633 4.44552C14.8535 5.00414 15.6719 5.64668 16.1277 6.23466C16.6524 6.91131 16.7916 7.70562 16.7916 8.35145V28.4167C16.7916 28.9864 16.4183 29.4887 15.873 29.6533C15.3302 29.817 14.7445 29.6076 14.4283 29.1378L14.4259 29.1342L14.4274 29.1364L14.4283 29.1378C14.4283 29.1378 14.4266 29.1353 14.425 29.133C14.4195 29.1251 14.4079 29.109 14.3903 29.0855C14.355 29.0385 14.2956 28.9623 14.2116 28.8645C14.0433 28.6685 13.7783 28.3881 13.4122 28.0806C12.681 27.4661 11.5541 26.7493 9.9859 26.3704C8.13126 25.9222 6.08385 25.87 4.60872 25.9186C2.82657 25.9774 1.29163 24.5281 1.29163 22.6897V5.69058C1.29163 4.32619 2.20281 2.93967 3.76213 2.73673Z" fill="white"/>
</svg>
